<svg width="67" height="106" viewBox="0 0 67 106" fill="none" xmlns="http://www.w3.org/2000/svg">
<circle cx="43.0206" cy="82.8183" r="3.30928" fill="#FF7181"/>
<ellipse cx="62.877" cy="43.107" rx="3.31" ry="3.30928" fill="#FF7181"/>
<circle cx="43.0206" cy="43.107" r="3.30928" fill="#FF7181"/>
<ellipse cx="62.877" cy="62.9626" rx="3.31" ry="3.30928" fill="#FF7181"/>
<circle cx="43.0206" cy="23.2513" r="3.30928" fill="#FF7181"/>
<ellipse cx="62.877" cy="23.2513" rx="3.31" ry="3.30928" fill="#FF7181"/>
<circle cx="43.0206" cy="3.3957" r="3.30928" fill="#FF7181"/>
<ellipse cx="62.877" cy="3.3957" rx="3.31" ry="3.30928" fill="#FF7181"/>
<circle cx="3.30928" cy="82.8183" r="3.30928" fill="#FF7181"/>
<ellipse cx="62.877" cy="82.8183" rx="3.31" ry="3.30928" fill="#FF7181"/>
<circle cx="3.30928" cy="62.9626" r="3.30928" fill="#FF7181"/>
<circle cx="23.165" cy="82.8183" r="3.30928" fill="#FF7181"/>
<circle cx="3.30928" cy="23.2513" r="3.30928" fill="#FF7181"/>
<circle cx="23.165" cy="102.674" r="3.30928" fill="#FF7181"/>
<circle cx="3.30928" cy="102.674" r="3.30928" fill="#FF7181"/>
<circle cx="23.165" cy="62.9626" r="3.30928" fill="#FF7181"/>
<circle cx="43.0206" cy="62.9626" r="3.30928" fill="#FF7181"/>
<circle cx="23.165" cy="43.107" r="3.30928" fill="#FF7181"/>
<circle cx="3.30928" cy="43.107" r="3.30928" fill="#FF7181"/>
<circle cx="23.165" cy="23.2513" r="3.30928" fill="#FF7181"/>
<circle cx="3.30928" cy="3.3957" r="3.30928" fill="#FF7181"/>
<circle cx="23.165" cy="3.3957" r="3.30928" fill="#FF7181"/>
<circle cx="43.0206" cy="102.674" r="3.30928" fill="#FF7181"/>
<ellipse cx="62.877" cy="102.674" rx="3.31" ry="3.30928" fill="#FF7181"/>
</svg>
