<svg width="59" height="91" viewBox="0 0 59 91" fill="none" xmlns="http://www.w3.org/2000/svg">
<path d="M14 3L15.5828 4.63742C22.6449 11.943 34.3551 11.943 41.4172 4.63742V4.63742L43 3" stroke="#FF7181" stroke-width="5" stroke-linecap="round"/>
<circle cx="23.5625" cy="78.3126" r="1.8125" fill="#FF7181" fill-opacity="0.54"/>
<circle cx="23.5625" cy="45.6874" r="1.8125" fill="#FF7181" fill-opacity="0.54"/>
<ellipse cx="34.7396" cy="45.6874" rx="2.11458" ry="1.8125" fill="#FF7181" fill-opacity="0.54"/>
<circle cx="23.5625" cy="34.8125" r="1.8125" fill="#FF7181" fill-opacity="0.54"/>
<ellipse cx="34.7396" cy="34.8125" rx="2.11458" ry="1.8125" fill="#FF7181" fill-opacity="0.54"/>
<circle cx="1.8125" cy="78.3126" r="1.8125" fill="#FF7181" fill-opacity="0.54"/>
<ellipse cx="34.7396" cy="78.3126" rx="2.11458" ry="1.8125" fill="#FF7181" fill-opacity="0.54"/>
<circle cx="12.6875" cy="78.3126" r="1.8125" fill="#FF7181" fill-opacity="0.54"/>
<circle cx="1.8125" cy="45.6874" r="1.8125" fill="#FF7181" fill-opacity="0.54"/>
<circle cx="12.6875" cy="89.1875" r="1.8125" fill="#FF7181" fill-opacity="0.54"/>
<circle cx="1.8125" cy="89.1875" r="1.8125" fill="#FF7181" fill-opacity="0.54"/>
<circle cx="12.6875" cy="45.6874" r="1.8125" fill="#FF7181" fill-opacity="0.54"/>
<circle cx="1.8125" cy="34.8125" r="1.8125" fill="#FF7181" fill-opacity="0.54"/>
<circle cx="12.6875" cy="34.8125" r="1.8125" fill="#FF7181" fill-opacity="0.54"/>
<circle cx="23.5625" cy="89.1875" r="1.8125" fill="#FF7181" fill-opacity="0.54"/>
<ellipse cx="34.7396" cy="89.1875" rx="2.11458" ry="1.8125" fill="#FF7181" fill-opacity="0.54"/>
<circle cx="45.9167" cy="78.3126" r="1.8125" fill="#FF7181" fill-opacity="0.54"/>
<circle cx="56.7917" cy="78.3126" r="1.8125" fill="#FF7181" fill-opacity="0.54"/>
<circle cx="45.9167" cy="45.6874" r="1.8125" fill="#FF7181" fill-opacity="0.54"/>
<circle cx="56.7917" cy="89.1875" r="1.8125" fill="#FF7181" fill-opacity="0.54"/>
<circle cx="45.9167" cy="89.1875" r="1.8125" fill="#FF7181" fill-opacity="0.54"/>
<circle cx="56.7917" cy="45.6874" r="1.8125" fill="#FF7181" fill-opacity="0.54"/>
<circle cx="45.9167" cy="34.8125" r="1.8125" fill="#FF7181" fill-opacity="0.54"/>
<circle cx="56.7917" cy="34.8125" r="1.8125" fill="#FF7181" fill-opacity="0.54"/>
</svg>
