<svg width="82" height="114" viewBox="0 0 82 114" fill="none" xmlns="http://www.w3.org/2000/svg">
<circle cx="32.9689" cy="95.402" r="2.53608" fill="#C4C4C4" fill-opacity="0.6"/>
<circle cx="32.9689" cy="64.9691" r="2.53608" fill="#C4C4C4" fill-opacity="0.01"/>
<circle cx="32.9689" cy="49.7526" r="2.53608" fill="#C4C4C4" fill-opacity="0.6"/>
<ellipse cx="48.6082" cy="49.7526" rx="2.95876" ry="2.53608" fill="#C4C4C4" fill-opacity="0.6"/>
<circle cx="32.9689" cy="34.5361" r="2.53608" fill="#C4C4C4" fill-opacity="0.6"/>
<ellipse cx="48.6082" cy="34.5361" rx="2.95876" ry="2.53608" fill="#C4C4C4" fill-opacity="0.6"/>
<circle cx="2.53608" cy="95.402" r="2.53608" fill="#C4C4C4" fill-opacity="0.6"/>
<ellipse cx="48.6082" cy="95.402" rx="2.95876" ry="2.53608" fill="#C4C4C4" fill-opacity="0.6"/>
<circle cx="2.53608" cy="80.1856" r="2.53608" fill="#C4C4C4" fill-opacity="0.01"/>
<circle cx="17.7526" cy="95.402" r="2.53608" fill="#C4C4C4" fill-opacity="0.6"/>
<circle cx="2.53608" cy="49.7526" r="2.53608" fill="#C4C4C4" fill-opacity="0.6"/>
<circle cx="17.7526" cy="110.619" r="2.53608" fill="#C4C4C4" fill-opacity="0.6"/>
<circle cx="2.53608" cy="110.619" r="2.53608" fill="#C4C4C4" fill-opacity="0.6"/>
<circle cx="17.7526" cy="80.1856" r="2.53608" fill="#C4C4C4" fill-opacity="0.01"/>
<circle cx="32.9689" cy="80.1856" r="2.53608" fill="#C4C4C4" fill-opacity="0.01"/>
<circle cx="17.7526" cy="64.9691" r="2.53608" fill="#C4C4C4" fill-opacity="0.01"/>
<circle cx="2.53608" cy="64.9691" r="2.53608" fill="#C4C4C4" fill-opacity="0.01"/>
<circle cx="17.7526" cy="49.7526" r="2.53608" fill="#C4C4C4" fill-opacity="0.6"/>
<circle cx="2.53608" cy="34.5361" r="2.53608" fill="#C4C4C4" fill-opacity="0.6"/>
<circle cx="17.7526" cy="34.5361" r="2.53608" fill="#C4C4C4" fill-opacity="0.6"/>
<circle cx="32.9689" cy="110.619" r="2.53608" fill="#C4C4C4" fill-opacity="0.6"/>
<ellipse cx="48.6082" cy="110.619" rx="2.95876" ry="2.53608" fill="#C4C4C4" fill-opacity="0.6"/>
<circle cx="64.2475" cy="95.402" r="2.53608" fill="#C4C4C4" fill-opacity="0.6"/>
<circle cx="79.4638" cy="95.402" r="2.53608" fill="#C4C4C4" fill-opacity="0.6"/>
<circle cx="64.2475" cy="49.7526" r="2.53608" fill="#C4C4C4" fill-opacity="0.6"/>
<circle cx="79.4638" cy="110.619" r="2.53608" fill="#C4C4C4" fill-opacity="0.6"/>
<circle cx="64.2475" cy="110.619" r="2.53608" fill="#C4C4C4" fill-opacity="0.6"/>
<circle cx="79.4638" cy="49.7526" r="2.53608" fill="#C4C4C4" fill-opacity="0.6"/>
<circle cx="64.2475" cy="34.5361" r="2.53608" fill="#C4C4C4" fill-opacity="0.6"/>
<circle cx="79.4638" cy="34.5361" r="2.53608" fill="#C4C4C4" fill-opacity="0.6"/>
<path d="M24 3L26.4561 5.45613C37.5261 16.5261 55.4739 16.5261 66.5439 5.45613V5.45613L69 3" stroke="#FF7181" stroke-width="5" stroke-linecap="round"/>
</svg>
