<svg width="107" height="106" viewBox="0 0 107 106" fill="none" xmlns="http://www.w3.org/2000/svg">
<circle cx="43.0206" cy="82.7319" r="3.30928" fill="#FF7181"/>
<ellipse cx="63.4278" cy="43.0206" rx="3.86082" ry="3.30928" fill="#FF7181"/>
<circle cx="43.0206" cy="43.0206" r="3.30928" fill="#FF7181"/>
<ellipse cx="63.4278" cy="62.8762" rx="3.86082" ry="3.30928" fill="#FF7181"/>
<circle cx="43.0206" cy="23.1649" r="3.30928" fill="#FF7181"/>
<ellipse cx="63.4278" cy="23.1649" rx="3.86082" ry="3.30928" fill="#FF7181"/>
<circle cx="43.0206" cy="3.30928" r="3.30928" fill="#FF7181"/>
<ellipse cx="63.4278" cy="3.30928" rx="3.86082" ry="3.30928" fill="#FF7181"/>
<circle cx="3.30928" cy="82.7319" r="3.30928" fill="#FF7181"/>
<ellipse cx="63.4278" cy="82.7319" rx="3.86082" ry="3.30928" fill="#FF7181"/>
<circle cx="3.30928" cy="62.8762" r="3.30928" fill="#FF7181"/>
<circle cx="23.165" cy="82.7319" r="3.30928" fill="#FF7181"/>
<circle cx="3.30928" cy="23.1649" r="3.30928" fill="#FF7181"/>
<circle cx="23.165" cy="102.587" r="3.30928" fill="#FF7181"/>
<circle cx="3.30928" cy="102.587" r="3.30928" fill="#FF7181"/>
<circle cx="23.165" cy="62.8762" r="3.30928" fill="#FF7181"/>
<circle cx="43.0206" cy="62.8762" r="3.30928" fill="#FF7181"/>
<circle cx="23.165" cy="43.0206" r="3.30928" fill="#FF7181"/>
<circle cx="3.30928" cy="43.0206" r="3.30928" fill="#FF7181"/>
<circle cx="23.165" cy="23.1649" r="3.30928" fill="#FF7181"/>
<circle cx="3.30928" cy="3.30928" r="3.30928" fill="#FF7181"/>
<circle cx="23.165" cy="3.30928" r="3.30928" fill="#FF7181"/>
<circle cx="43.0206" cy="102.587" r="3.30928" fill="#FF7181"/>
<ellipse cx="63.4278" cy="102.587" rx="3.86082" ry="3.30928" fill="#FF7181"/>
<circle cx="83.835" cy="82.7319" r="3.30928" fill="#FF7181"/>
<circle cx="83.835" cy="62.8762" r="3.30928" fill="#FF7181"/>
<circle cx="103.691" cy="82.7319" r="3.30928" fill="#FF7181"/>
<circle cx="83.835" cy="23.1649" r="3.30928" fill="#FF7181"/>
<circle cx="103.691" cy="102.587" r="3.30928" fill="#FF7181"/>
<circle cx="83.835" cy="102.587" r="3.30928" fill="#FF7181"/>
<circle cx="103.691" cy="62.8762" r="3.30928" fill="#FF7181"/>
<circle cx="103.691" cy="43.0206" r="3.30928" fill="#FF7181"/>
<circle cx="83.835" cy="43.0206" r="3.30928" fill="#FF7181"/>
<circle cx="103.691" cy="23.1649" r="3.30928" fill="#FF7181"/>
<circle cx="83.835" cy="3.30928" r="3.30928" fill="#FF7181"/>
<circle cx="103.691" cy="3.30928" r="3.30928" fill="#FF7181"/>
</svg>
