<svg width="131" height="35" viewBox="0 0 131 35" fill="none" xmlns="http://www.w3.org/2000/svg">
<path fill-rule="evenodd" clip-rule="evenodd" d="M87.6169 22.1951H95.2727V11.9512H87.6169C86.2958 11.9512 85.0649 13.1896 85.0649 14.5122V19.6341C85.0649 20.957 86.2958 22.1951 87.6169 22.1951ZM118.24 22.1951H125.896V11.9512H118.24C116.919 11.9512 115.688 13.1896 115.688 14.5122V19.6341C115.688 20.957 116.919 22.1951 118.24 22.1951ZM100.377 8.10976V26.0366C100.377 26.6015 99.6655 27.3171 99.1007 27.3171L96.5487 27.344C95.9839 27.344 95.2727 26.6017 95.2727 26.0366V25.1829L94.115 26.5782C93.762 27.0596 92.8918 27.3171 92.2955 27.3171H87.6169C83.5116 27.3171 79.961 23.7443 79.961 19.6341V14.5122C79.961 10.4021 83.5116 6.82927 87.6169 6.82927H99.1007C99.6646 6.82927 100.377 7.54539 100.377 8.10976ZM131 8.10976V26.0366C131 26.6015 130.289 27.3171 129.724 27.3171L127.172 27.344C126.607 27.344 125.896 26.6017 125.896 26.0366V25.1829L124.738 26.5782C124.385 27.0596 123.515 27.3171 122.919 27.3171H118.24C114.135 27.3171 110.584 23.7443 110.584 19.6341V14.5122C110.584 10.4021 114.135 6.82927 118.24 6.82927H129.724C130.288 6.82927 131 7.54539 131 8.10976ZM45.9351 11.9512H38.2792C36.958 11.9512 35.7273 13.1896 35.7273 14.5122V19.6341C35.7273 20.9571 36.958 22.1951 38.2792 22.1951H45.9351V11.9512ZM51.039 8.10976V27.3171V27.7439C51.039 31.854 47.4884 35 43.3831 35H39.4381C38.8511 35 38.298 34.7244 37.944 34.2555L35.6984 31.2801C35.3254 30.7863 35.5341 29.878 36.1526 29.878H43.3831C44.7042 29.878 45.9351 29.0665 45.9351 27.7439V27.3171H38.2792C34.1742 27.3171 30.6234 23.7443 30.6234 19.6341V14.5122C30.6234 10.4023 34.1742 6.82927 38.2792 6.82927H42.9578C43.5433 6.82927 44.1814 7.30191 44.5947 7.68293L45.9351 8.96341V8.10976C45.9351 7.54557 46.6477 6.82927 47.211 6.82927H49.763C50.3275 6.82927 51.039 7.54442 51.039 8.10976ZM5.1039 19.6341C5.1039 20.9567 6.33482 22.1951 7.65584 22.1951H15.3117V11.9512H7.65584C6.33482 11.9512 5.1039 13.1896 5.1039 14.5122V19.6341ZM19.1396 0C19.7044 0 20.4156 0.715343 20.4156 1.28049V26.0366C20.4156 26.6015 19.7044 27.3171 19.1396 27.3171H16.5877C16.023 27.3171 15.3117 26.602 15.3117 26.0366V25.1829L13.9737 26.6197C13.6112 27.0238 12.9122 27.3171 12.3344 27.3171H7.65584C3.55065 27.3171 0 23.7443 0 19.6341V14.5513C0 10.4412 3.55065 6.82927 7.65584 6.82927H15.3117V1.28049C15.3117 0.715343 16.023 0 16.5877 0H19.1396ZM71.8799 17.0732L78.9832 8.05008C79.3783 7.55831 79.0289 6.8275 78.3987 6.8275H74.3359C74.0287 6.8275 73.7379 6.96594 73.5435 7.20439L66.3506 16.2195V1.28049C66.3506 0.715343 65.6392 0 65.0747 0H62.5227C61.9581 0 61.2468 0.715343 61.2468 1.28049V26.0366C61.2468 26.6017 61.9581 27.3171 62.5227 27.3171H65.0747C65.6393 27.3171 66.3506 26.6017 66.3506 26.0366V17.9268L73.5473 26.9619C73.7413 27.2032 74.0341 27.344 74.3438 27.344H78.4023C79.0326 27.344 79.3824 26.6128 78.987 26.1212L71.8799 17.0732ZM54.8669 0C54.3026 0 53.5909 0.715343 53.5909 1.28049V3.84146C53.5909 4.40661 54.3026 5.12195 54.8669 5.12195H57.4188C57.9833 5.12195 58.6948 4.40661 58.6948 3.84146V1.28049C58.6948 0.715343 57.9833 0 57.4188 0H54.8669ZM54.8669 6.82927C54.3026 6.82927 53.5909 7.54481 53.5909 8.10976V26.0366C53.5909 26.6015 54.5026 27.3438 55.067 27.3438L57.4188 27.3171C57.9833 27.3171 58.6948 26.6015 58.6948 26.0366V8.10976C58.6948 7.54481 57.9833 6.82927 57.4188 6.82927H54.8669ZM24.2435 0C23.679 0 22.9675 0.715343 22.9675 1.28049V3.84146C22.9675 4.40661 23.679 5.12195 24.2435 5.12195H26.7955C27.3599 5.12195 28.0714 4.40661 28.0714 3.84146V1.28049C28.0714 0.715343 27.3599 0 26.7955 0H24.2435ZM24.2435 6.82927C23.679 6.82927 22.9675 7.54481 22.9675 8.10976V26.0366C22.9675 26.6015 23.679 27.3171 24.2435 27.3171H26.7955C27.3599 27.3171 28.0714 26.6015 28.0714 26.0366V8.10976C28.0714 7.54481 27.3599 6.82927 26.7955 6.82927H24.2435ZM108.032 1.28049V26.0366C108.032 26.6015 107.321 27.3171 106.756 27.3171H104.205C103.64 27.3171 102.929 26.6015 102.929 26.0366V1.28049C102.929 0.715343 103.64 0 104.205 0H106.756C107.321 0 108.032 0.715343 108.032 1.28049Z" fill="#EF394E"/>
</svg>
