<svg width="25" height="25" viewBox="0 0 25 25" fill="none" xmlns="http://www.w3.org/2000/svg">
<path fill-rule="evenodd" clip-rule="evenodd" d="M16.2243 21.5066C18.8561 20.8839 20.9085 18.8553 21.509 16.2734C22.0454 13.9665 21.915 11.5591 21.1322 9.32059L21.0159 8.98803C20.1545 6.52491 18.0028 4.70669 15.3856 4.23047L14.6689 4.10007C13.468 3.88156 12.2362 3.88156 11.0353 4.10007L10.3186 4.23048C7.70141 4.70669 5.54966 6.5249 4.68832 8.98802L4.57202 9.32059C3.7892 11.5591 3.65873 13.9665 4.1952 16.2734C4.79562 18.8553 6.84803 20.8839 9.47991 21.5066C11.6918 22.03 14.0124 22.03 16.2243 21.5066ZM10.4861 8.12762C10.6212 7.81302 10.4699 7.45087 10.1482 7.31874C9.82649 7.18661 9.45614 7.33453 9.32101 7.64913L9.10914 8.14242C8.7174 9.05447 8.61894 10.0615 8.82684 11.0296C9.15679 12.566 10.4076 13.7526 11.988 14.0286L12.1049 14.049C12.5991 14.1353 13.1051 14.1353 13.5993 14.049L13.7162 14.0286C15.2966 13.7526 16.5474 12.566 16.8774 11.0296C17.0853 10.0615 16.9868 9.05447 16.5951 8.14242L16.3832 7.64913C16.2481 7.33453 15.8777 7.18661 15.556 7.31874C15.2343 7.45087 15.083 7.81302 15.2181 8.12762L15.43 8.62091C15.7223 9.30159 15.7958 10.0532 15.6407 10.7757C15.4166 11.819 14.5672 12.6248 13.494 12.8122L13.3772 12.8326C13.0299 12.8932 12.6743 12.8932 12.327 12.8326L12.2102 12.8122C11.137 12.6248 10.2876 11.819 10.0635 10.7757C9.90837 10.0532 9.98185 9.30159 10.2742 8.62091L10.4861 8.12762Z" fill="white"/>
</svg>
