<svg id="Layer_1" data-name="Layer 1" xmlns="http://www.w3.org/2000/svg" viewBox="0 0 94.5 24.77"><defs><style>.cls-1{fill:#fff;}</style></defs><title>table-arrow</title><path class="cls-1" d="M23.26,11.51l-3.47,1c-2.14.53-3.9,1.17-5.4,1.6l-2,.61-1.62.54c-1,.31-1.7.53-2.27.66-2.27.57-1.77-.09-2-.55s-1-.6,1.19-1.78c.53-.28,1.25-.64,2.2-1.08l1.61-.74,2-.76c1.49-.55,3.31-1.25,5.51-1.85l3.56-1c1.3-.33,2.68-.62,4.18-1A112.48,112.48,0,0,1,48.12,4.56a109.82,109.82,0,0,1,23.17,2A93.47,93.47,0,0,1,89,11.76a48.53,48.53,0,0,1,5,2.32c1.17.6,1.78,1,1.73,1.08C95.53,15.74,85,11,70.74,9A118.8,118.8,0,0,0,48.05,7.82a124.94,124.94,0,0,0-20.74,2.74l-4,.93" transform="translate(-1.28)"/><path class="cls-1" d="M8.16,19c2,.95,3.8,1.84,5.25,2.61,3,1.57,4.73,2.73,4.56,3.09s-2.22-.11-5.42-1.21C11,22.89,9.09,22.2,7,21.39c-1-.42-2.07-.82-3.27-1.34a4.57,4.57,0,0,1-1.95-1.5,3,3,0,0,1-.51-1.67,4,4,0,0,1,.37-1.66,19.08,19.08,0,0,1,1.23-2c.36-.58.78-1.12,1.18-1.66.79-1.07,1.57-2.09,2.34-3,1.54-1.9,3-3.52,4.32-4.83C13.32,1.11,15.16-.23,15.41,0s-1.1,2.1-3.29,5C11,6.46,9.75,8.14,8.34,10.1c-.7,1-1.41,2-2.15,3l-1.1,1.62a16,16,0,0,0-1,1.52c-.15.4-.12.32,0,.49a2.33,2.33,0,0,0,.94.7l3.11,1.45" transform="translate(-1.28)"/></svg>