<svg width="25" height="25" viewBox="0 0 25 25" fill="none" xmlns="http://www.w3.org/2000/svg">
<path d="M19.7021 4.2041C19.5765 3.84969 19.0753 3.84969 18.9497 4.2041L18.5193 5.4188C18.4791 5.53225 18.3899 5.62149 18.2764 5.66169L17.0617 6.0921C16.7073 6.21768 16.7073 6.71889 17.0617 6.84447L18.2764 7.27488C18.3899 7.31508 18.4791 7.40432 18.5193 7.51777L18.9497 8.73247C19.0753 9.08688 19.5765 9.08688 19.7021 8.73247L20.1325 7.51777C20.1727 7.40432 20.262 7.31508 20.3754 7.27488L21.5901 6.84447C21.9445 6.71889 21.9445 6.21768 21.5901 6.0921L20.3754 5.66169C20.262 5.62149 20.1727 5.53225 20.1325 5.4188L19.7021 4.2041Z" fill="white"/>
<path d="M15.018 8.1699C15.1048 7.92507 15.451 7.92507 15.5378 8.1699L15.775 8.83939C15.8028 8.91776 15.8644 8.97941 15.9428 9.00718L16.6123 9.2444C16.8571 9.33115 16.8571 9.67739 16.6123 9.76415L15.9428 10.0014C15.8644 10.0291 15.8028 10.0908 15.775 10.1692L15.5378 10.8386C15.451 11.0835 15.1048 11.0835 15.018 10.8386L14.7808 10.1692C14.7531 10.0908 14.6914 10.0291 14.613 10.0014L13.9435 9.76415C13.6987 9.67739 13.6987 9.33115 13.9435 9.2444L14.613 9.00718C14.6914 8.97941 14.7531 8.91776 14.7808 8.83939L15.018 8.1699Z" fill="white"/>
<path d="M17.6347 11.1447C17.6925 10.9815 17.9233 10.9815 17.9812 11.1447L18.1393 11.591C18.1578 11.6433 18.1989 11.6844 18.2512 11.7029L18.6975 11.861C18.8607 11.9188 18.8607 12.1497 18.6975 12.2075L18.2512 12.3657C18.1989 12.3842 18.1578 12.4253 18.1393 12.4775L17.9812 12.9238C17.9233 13.0871 17.6925 13.0871 17.6347 12.9238L17.4765 12.4775C17.458 12.4253 17.4169 12.3842 17.3647 12.3657L16.9183 12.2075C16.7551 12.1497 16.7551 11.9188 16.9183 11.861L17.3647 11.7029C17.4169 11.6844 17.458 11.6433 17.4765 11.591L17.6347 11.1447Z" fill="white"/>
<path d="M12.0109 5.58571C12.1653 5.85597 12.1391 6.19313 11.9447 6.43626C11.1291 7.45646 10.6462 8.73359 10.6462 10.12C10.6462 13.4265 13.411 16.1439 16.8676 16.1439C17.8171 16.1439 18.7144 15.9385 19.5168 15.5722C19.7987 15.4435 20.1306 15.4992 20.3552 15.7129C20.5797 15.9266 20.6517 16.2554 20.5371 16.5434C19.2861 19.687 16.1545 21.9013 12.5049 21.9013C7.76932 21.9013 3.89294 18.1654 3.89294 13.5115C3.89294 9.27835 7.10199 5.80321 11.2445 5.21096C11.5526 5.1669 11.8564 5.31546 12.0109 5.58571Z" fill="white"/>
</svg>
